EMG
version=1
nRows=27
nColumns=17
inDegrees=no
endheader
time	_right_gast_med	_right_glut_max	_left_gast_med	_left_glut_max	_right_glut_med	_right_bic_fem	_right_rect_fem	_right_vast_lat	_right_vast_med	_right_tens_fasc_lat	_left_glut_med	_left_bic_fem	_left_rect_fem	_left_vast_lat	_left_vast_med	_left_tens_fasc_lat
      0.43000000	     -0.53394067	     -0.01649109	      0.01419817	     -0.12835070	     -0.09643726	      0.04570616	     -0.05614735	      0.01021222	      0.32643053	      0.13995409	     -0.01046382	     -0.03407310	     -0.00113614	      0.01290597	     -0.06900854	      0.03913226
      0.44000000	      0.03330940	     -0.02008095	      0.02384030	     -0.07611058	     -0.32213014	     -0.00516300	     -0.01162997	     -0.12336903	      0.25029853	      0.14588432	      0.05218565	     -0.02533711	     -0.02077938	      0.00952748	     -0.08321909	      0.00677419
      0.45000000	      0.14928438	     -0.03199474	      0.02233447	     -0.02657298	     -0.42598343	     -0.02285134	      0.00134988	     -0.12467315	      0.13480847	      0.08241522	      0.08546285	     -0.00735997	     -0.01185087	      0.02101662	      0.00023944	     -0.02316457
      0.46000000	      0.13418370	     -0.03681922	      0.01501676	     -0.01648467	     -0.41254354	      0.00160884	     -0.00491125	     -0.00625410	      0.04610527	      0.01040499	      0.04355689	     -0.00440604	      0.01667129	      0.02609249	      0.06765477	     -0.00620019
      0.47000000	      0.12756629	      0.03014896	      0.00983734	     -0.04385526	     -0.32562095	      0.04249135	     -0.01528651	      0.04934730	      0.02205911	     -0.03695039	     -0.00655870	     -0.00280762	      0.02724797	      0.00870704	      0.04279065	      0.02353689
      0.48000000	      0.10216861	      0.08317013	      0.00572490	     -0.05398247	     -0.18404554	      0.03881296	     -0.00765653	     -0.05401864	      0.00463864	     -0.07157756	     -0.01701926	      0.00258902	      0.02501821	     -0.02202731	     -0.01567993	      0.03273017
      0.49000000	      0.03390800	      0.01305107	      0.00045747	      0.00689988	      0.02004354	     -0.03122751	      0.11400753	     -0.03476240	     -0.07684333	     -0.06226281	     -0.01660294	      0.00024649	      0.01953020	     -0.04197462	     -0.02771324	      0.02666296
      0.50000000	     -0.07806067	     -0.03188743	      0.00004675	      0.10977723	      0.24788389	     -0.09927940	      0.34376970	      0.19869897	     -0.16880214	      0.00234342	     -0.02663142	      0.00151742	      0.00772804	     -0.01934620	     -0.00366559	      0.01728937
      0.51000000	     -0.16530025	      0.06917630	      0.01112656	      0.10680109	      0.36660042	     -0.04480366	      0.39240259	      0.23053865	     -0.16436781	      0.01365490	     -0.03933446	      0.00337011	      0.00220690	      0.05082727	      0.01413502	      0.01818896
      0.52000000	     -0.38172352	      0.17408538	      0.02529933	     -0.09660627	      0.33751774	      0.07629759	      0.12506840	      0.04300890	     -0.08546991	     -0.04170324	     -0.04474045	     -0.00505179	      0.00475653	      0.10892711	      0.02851014	      0.03340837
      0.53000000	     -0.95887697	      0.18919477	      0.02851397	     -0.27745959	      0.24491048	      0.07070521	     -0.19206607	     -0.03869599	      0.00516310	     -0.05904736	     -0.03646325	      0.00082350	     -0.00003940	      0.10876499	      0.06610859	      0.03668907
      0.54000000	     -1.01653886	      0.14152509	      0.02114828	     -0.12972571	      0.13353628	     -0.01833176	     -0.32549301	     -0.00441803	      0.04001453	     -0.02389541	     -0.02162680	      0.02075055	     -0.00968331	      0.07743719	      0.12193055	      0.00376702
      0.55000000	     -0.35544688	      0.01053683	      0.01156219	      0.21719450	      0.03336701	     -0.01456599	     -0.26972815	     -0.01964839	     -0.02809507	      0.01338240	     -0.01429184	      0.01562261	     -0.00740959	      0.04934748	      0.16064729	     -0.04282602
      0.56000000	     -0.53195095	     -0.17901163	      0.00513971	      0.40166831	     -0.03755354	      0.08327798	     -0.15936278	     -0.12919270	     -0.09742083	      0.02677454	     -0.01044446	     -0.00189802	      0.00873287	      0.02901440	      0.15741231	     -0.06790560
      0.57000000	     -1.32620621	     -0.26030537	      0.00425657	      0.33406749	     -0.08529046	      0.13558853	     -0.08542988	     -0.16803741	     -0.09465399	      0.02666540	      0.00336667	      0.00699310	      0.02378410	      0.01558156	      0.10190979	     -0.05900216
      0.58000000	     -1.39060175	     -0.08732187	      0.00169614	      0.15289554	     -0.07980342	      0.06756756	     -0.03633033	     -0.04989733	     -0.07173662	      0.02321012	      0.02378796	      0.02009253	      0.02495779	      0.00046116	      0.00777393	     -0.01750263
      0.59000000	     -0.84012151	      0.15160324	     -0.00222807	      0.00114907	     -0.01203817	     -0.03068699	     -0.00671034	      0.09113068	     -0.05624165	      0.02906417	      0.04214263	      0.00922833	      0.01376029	     -0.03116098	     -0.08023882	      0.03628688
      0.60000000	      0.04461009	      0.09976841	     -0.00004955	     -0.06020500	      0.05714143	     -0.07500090	     -0.00946907	      0.12612535	     -0.01008211	      0.05019620	      0.05128506	      0.00540802	      0.00191950	     -0.07198069	     -0.13656074	      0.06292199
      0.61000000	      1.01648903	     -0.15134056	     -0.00941241	     -0.07866817	      0.07878060	     -0.07584291	     -0.00924770	      0.06164347	      0.08022561	      0.04902824	      0.04098152	      0.04194200	     -0.00433402	     -0.10513046	     -0.17464028	      0.04177058
      0.62000000	      1.27734268	     -0.19311339	     -0.02932747	     -0.09601112	      0.05826513	     -0.03160692	      0.03693068	     -0.03337058	      0.16419366	      0.00724462	      0.02149341	      0.09371512	     -0.00558053	     -0.12887251	     -0.19892135	      0.00083865
      0.63000000	      0.85300380	      0.04411247	     -0.02501452	     -0.08082560	      0.01760835	      0.04108506	      0.09193102	     -0.10089771	      0.19298135	     -0.02473220	      0.02000053	      0.10245112	      0.00196549	     -0.13761468	     -0.18902692	     -0.01491101
      0.64000000	      0.55763757	      0.33151564	      0.00223704	     -0.03519019	     -0.01625308	      0.05369506	      0.09436118	     -0.11162741	      0.17247827	     -0.00374850	      0.03249047	      0.04991559	      0.01715794	     -0.11715242	     -0.13945226	     -0.00044316
      0.65000000	      0.97146827	      0.43816069	      0.02909799	      0.00156951	     -0.01525396	     -0.00823358	      0.05444895	     -0.05325861	      0.13841781	      0.02561964	      0.03175478	     -0.02561594	      0.03034283	     -0.07036529	     -0.07136109	      0.01837058
      0.66000000	      1.60253584	      0.26812536	      0.04294428	      0.02025938	      0.01089568	     -0.04891033	      0.02759800	      0.04571388	      0.11032914	      0.00523123	      0.02226412	     -0.07475369	      0.03735391	     -0.01764783	      0.00131888	      0.03169883
      0.67000000	      0.85701823	      0.01243136	      0.02092247	      0.01310358	      0.02024263	     -0.02620970	      0.02445932	      0.13380107	      0.07958219	     -0.02999785	      0.02930657	     -0.08010236	      0.03821548	      0.03029225	      0.06596736	      0.04217717
      0.68000000	     -0.83161360	     -0.11830914	     -0.01995502	     -0.01634141	      0.00615112	      0.01649192	      0.02327397	      0.17898861	      0.03873514	     -0.02491923	      0.04429701	     -0.06969205	      0.03613119	      0.07066116	      0.09098287	      0.04221587
      0.69000000	     -0.91725022	     -0.17758390	     -0.00416942	     -0.02959003	     -0.00395730	      0.02232050	      0.02551807	      0.13792130	     -0.00027015	      0.01100801	      0.02903897	     -0.04641332	      0.03016416	      0.08862478	      0.06584289	      0.02914027
